<svg width="1915" height="117" viewBox="0 0 1915 117" fill="none" xmlns="http://www.w3.org/2000/svg">
<path d="M1637 89.5C1652 47 1793 114 1915 -1.52588e-05L0.5 -1.52588e-05C0.5 -1.52588e-05 149 33.5 66 89.5C-17 145.5 134 86.1245 287 43.5C440 0.875458 458.263 48.9853 568 52.5C568 52.5 581.5 112 690 43.5C798.5 -25 650.5 128.501 742.938 64.8125C835.375 1.1245 795.875 86.125 795.875 86.125L926 112C686.5 -74 1235.5 74.0006 1235.5 74.0006C1235.5 74.0006 1567 173 1436 68.5006C1305 -35.9992 1637 89.5 1637 89.5Z" fill="#B9FF26"/>
</svg>
